<svg width="18" height="15" viewBox="0 0 18 15" fill="none" xmlns="http://www.w3.org/2000/svg">
<mask id="path-1-outside-1_87_247" maskUnits="userSpaceOnUse" x="0" y="0" width="18" height="15" fill="black">
<rect fill="white" width="18" height="15"/>
<path d="M4.64 13.04C3.78667 13.04 3.06667 12.7733 2.48 12.24C1.92 11.68 1.64 10.9867 1.64 10.16C1.64 9.73333 1.70667 9.29333 1.84 8.84C1.97333 8.38667 2.21333 7.78667 2.56 7.04L5.16 1.6H8.04L6.4 7.76C7.25333 8.34667 7.68 9.14667 7.68 10.16C7.68 10.9867 7.38667 11.68 6.8 12.24C6.21333 12.7733 5.49333 13.04 4.64 13.04ZM12.36 13.04C11.5067 13.04 10.7867 12.7733 10.2 12.24C9.64 11.68 9.36 10.9867 9.36 10.16C9.36 9.73333 9.42667 9.29333 9.56 8.84C9.69333 8.38667 9.93333 7.78667 10.28 7.04L12.88 1.6H15.76L14.12 7.76C14.9733 8.34667 15.4 9.14667 15.4 10.16C15.4 10.9867 15.1067 11.68 14.52 12.24C13.9333 12.7733 13.2133 13.04 12.36 13.04Z"/>
</mask>
<path d="M2.48 12.24L1.77289 12.9471L1.78972 12.9639L1.80733 12.9799L2.48 12.24ZM1.84 8.84L0.880635 8.55783L0.880635 8.55783L1.84 8.84ZM2.56 7.04L1.6577 6.60875L1.65299 6.61889L2.56 7.04ZM5.16 1.6V0.599998H4.5296L4.25775 1.16878L5.16 1.6ZM8.04 1.6L9.00634 1.85727L9.34107 0.599998H8.04V1.6ZM6.4 7.76L5.43366 7.50273L5.25218 8.1844L5.83347 8.58404L6.4 7.76ZM6.8 12.24L7.47267 12.9799L7.48168 12.9718L7.49048 12.9634L6.8 12.24ZM10.2 12.24L9.49289 12.9471L9.50972 12.9639L9.52733 12.9799L10.2 12.24ZM9.56 8.84L8.60064 8.55783L8.60063 8.55783L9.56 8.84ZM10.28 7.04L9.3777 6.60875L9.37299 6.61889L10.28 7.04ZM12.88 1.6V0.599998H12.2496L11.9778 1.16878L12.88 1.6ZM15.76 1.6L16.7263 1.85727L17.0611 0.599998H15.76V1.6ZM14.12 7.76L13.1537 7.50273L12.9722 8.1844L13.5535 8.58404L14.12 7.76ZM14.52 12.24L15.1927 12.9799L15.2017 12.9718L15.2105 12.9634L14.52 12.24ZM4.64 12.04C4.01476 12.04 3.54052 11.8526 3.15267 11.5001L1.80733 12.9799C2.59281 13.694 3.55857 14.04 4.64 14.04V12.04ZM3.18711 11.5329C2.82361 11.1694 2.64 10.7344 2.64 10.16H0.64C0.64 11.2389 1.01639 12.1906 1.77289 12.9471L3.18711 11.5329ZM2.64 10.16C2.64 9.83849 2.69012 9.4936 2.79937 9.12216L0.880635 8.55783C0.723214 9.09306 0.64 9.62818 0.64 10.16H2.64ZM2.79937 9.12216C2.91214 8.73872 3.12834 8.19056 3.46701 7.46111L1.65299 6.61889C1.29833 7.38277 1.03452 8.03461 0.880635 8.55783L2.79937 9.12216ZM3.46225 7.47122L6.06225 2.03122L4.25775 1.16878L1.65775 6.60878L3.46225 7.47122ZM5.16 2.6H8.04V0.599998H5.16V2.6ZM7.07366 1.34273L5.43366 7.50273L7.36634 8.01727L9.00634 1.85727L7.07366 1.34273ZM5.83347 8.58404C6.42257 8.98905 6.68 9.48451 6.68 10.16H8.68C8.68 8.80882 8.0841 7.70429 6.96653 6.93596L5.83347 8.58404ZM6.68 10.16C6.68 10.7193 6.49425 11.1494 6.10952 11.5166L7.49048 12.9634C8.27909 12.2106 8.68 11.254 8.68 10.16H6.68ZM6.12733 11.5001C5.73948 11.8526 5.26524 12.04 4.64 12.04V14.04C5.72143 14.04 6.68719 13.694 7.47267 12.9799L6.12733 11.5001ZM12.36 12.04C11.7348 12.04 11.2605 11.8526 10.8727 11.5001L9.52733 12.9799C10.3128 13.694 11.2786 14.04 12.36 14.04V12.04ZM10.9071 11.5329C10.5436 11.1694 10.36 10.7344 10.36 10.16H8.36C8.36 11.2389 8.73639 12.1906 9.49289 12.9471L10.9071 11.5329ZM10.36 10.16C10.36 9.83849 10.4101 9.4936 10.5194 9.12216L8.60063 8.55783C8.44321 9.09306 8.36 9.62818 8.36 10.16H10.36ZM10.5194 9.12217C10.6321 8.73872 10.8483 8.19056 11.187 7.46111L9.37299 6.61889C9.01833 7.38277 8.75453 8.03461 8.60064 8.55783L10.5194 9.12217ZM11.1822 7.47122L13.7822 2.03122L11.9778 1.16878L9.37775 6.60878L11.1822 7.47122ZM12.88 2.6H15.76V0.599998H12.88V2.6ZM14.7937 1.34273L13.1537 7.50273L15.0863 8.01727L16.7263 1.85727L14.7937 1.34273ZM13.5535 8.58404C14.1426 8.98905 14.4 9.48451 14.4 10.16H16.4C16.4 8.80882 15.8041 7.70429 14.6865 6.93596L13.5535 8.58404ZM14.4 10.16C14.4 10.7193 14.2142 11.1494 13.8295 11.5166L15.2105 12.9634C15.9991 12.2106 16.4 11.254 16.4 10.16H14.4ZM13.8473 11.5001C13.4595 11.8526 12.9852 12.04 12.36 12.04V14.04C13.4414 14.04 14.4072 13.694 15.1927 12.9799L13.8473 11.5001Z" fill="#D9D9D9" mask="url(#path-1-outside-1_87_247)"/>
</svg>
